<?xml version="1.0" encoding="UTF-8"?>
<svg version="1.1" xmlns="http://www.w3.org/2000/svg" width="32" height="33">
<path d="M0 0 C4.8846525 2.26787438 7.73212562 5.1153475 10 10 C10.75381535 15.5997712 10.77303575 20.33499991 8.375 25.5 C3.80134327 30.3143755 0.6912538 32.25156236 -6 32.5 C-12.6912538 32.25156236 -15.80134327 30.3143755 -20.375 25.5 C-22.77303575 20.33499991 -22.75381535 15.5997712 -22 10 C-17.52212837 0.3553534 -9.85292056 -1.32635469 0 0 Z " fill="#0866FF" transform="translate(22,0)"/>
<path d="M0 0 C0 1.65 0 3.3 0 5 C-1.65 5.33 -3.3 5.66 -5 6 C-5.33 7.32 -5.66 8.64 -6 10 C-4.35 10 -2.7 10 -1 10 C-1.33 11.65 -1.66 13.3 -2 15 C-3.32 15 -4.64 15 -6 15 C-6 18.63 -6 22.26 -6 26 C-7.98 26 -9.96 26 -12 26 C-12 22.37 -12 18.74 -12 15 C-12.99 15 -13.98 15 -15 15 C-15 13.35 -15 11.7 -15 10 C-14.01 10 -13.02 10 -12 10 C-12.0825 9.0925 -12.165 8.185 -12.25 7.25 C-12 4 -12 4 -10.5 1.625 C-6.86748926 -0.73613198 -4.28156703 -0.2854378 0 0 Z " fill="#F8FBFF" transform="translate(24,6)"/>
</svg>
